<svg version="1.1" xmlns="http://www.w3.org/2000/svg" viewBox="0 0 512 512" xmlns:xlink="http://www.w3.org/1999/xlink" enable-background="new 0 0 512 512">
  <g>
    <g>
      <path d="m440.3,120.4c-1.7-9.8-10.1-17-20-17h-24.9c11.6,31.3 17.2,59.8 17.2,74.2 0,33.8-27.2,61.2-60.7,61.2-33.2,0-60.3-27.1-60.7-60.5-1.6-15.6-17.3-54.5-31-74.9h-8.6c-13.7,20.5-29.4,59.4-31,74.9-0.4,33.4-27.5,60.5-60.7,60.5-33.5,0-60.7-27.5-60.7-61.2 0-14.4 5.6-42.9 17.2-74.2h-25c-9.9,0-18.3,7.2-20,17l-60.1,356.8c-2.1,17.5 12.5,23.8 20,23.8h449.3c0.1,0 0.1,0 0.2,0 11.2,0 20.2-9.1 20.2-20.4 0-2.2-60.7-360.2-60.7-360.2z"/>
      <path d="m159.9,197.9c11.2,0 20.2-9.1 20.2-20.4 0-22.5 36.9-125.7 75.8-125.7 38.9,0 75.8,103.2 75.8,125.7 0,11.3 9.1,20.4 20.2,20.4 11.2,0 20.2-9.1 20.2-20.4 0-27.1-40.5-166.5-116.3-166.5-75.8,0-116.3,139.4-116.3,166.5 0.1,11.3 9.2,20.4 20.4,20.4z"/>
    </g>
  </g>
</svg>
